<svg width="24" height="24" viewBox="0 0 24 24" fill="none" xmlns="http://www.w3.org/2000/svg">
<path d="M8.691 2.188C3.891 2.188 0 5.476 0 9.53c0 2.212 1.17 4.203 3.002 5.55a.59.59 0 0 1 .213.665l-.39 1.48c-.019.07-.048.141-.048.213 0 .163.13.295.29.295a.326.326 0 0 0 .167-.054l1.903-1.114a.864.864 0 0 1 .717-.098 10.16 10.16 0 0 0 2.837.403c.276 0 .543-.027.811-.05-.857-2.578.157-4.972 1.932-6.446 1.703-1.415 4.882-1.951 7.621-.54.093-.48.093-.98-.19-1.438C17.61 4.753 13.267 2.188 8.691 2.188zm-2.363 5.2a.8.8 0 1 1 0-1.6.8.8 0 0 1 0 1.6zm4.727 0a.8.8 0 1 1 0-1.6.8.8 0 0 1 0 1.6z" fill="#8B7355"/>
<path d="M23.725 11.518c0-3.48-3.24-6.342-7.24-6.342s-7.24 2.862-7.24 6.342c0 3.48 3.24 6.343 7.24 6.343a8.72 8.72 0 0 0 2.415-.34.738.738 0 0 1 .61.084l1.619.946c.025.014.05.028.078.028a.25.25 0 0 0 .247-.25c0-.061-.025-.118-.041-.182l-.332-1.26a.502.502 0 0 1 .181-.567c1.557-1.15 2.463-2.844 2.463-4.802zm-10.842-1.067a.68.68 0 1 1 .001-1.361.68.68 0 0 1 0 1.361zm3.41 0a.68.68 0 1 1 0-1.361.68.68 0 0 1 0 1.361z" fill="#8B7355"/>
</svg>
